<svg width="30" height="30" viewBox="0 0 30 30" fill="none" xmlns="http://www.w3.org/2000/svg">
<path d="M6 5H7.46267C8.00067 5 8.47145 5.36169 8.61007 5.88152L9.01456 7.39832M11.5417 16.875C9.79277 16.875 8.375 18.2928 8.375 20.0417H25M11.5417 16.875H22.887C23.3987 13.4444 23.9104 10.8056 24.4221 7.39832C18.7932 7.39832 16.2345 7.375 10.75 7.375C10.1697 7.375 9.59115 7.38281 9.01456 7.39832M11.5417 16.875L9.01456 7.39832M9.95833 23.2083C9.95833 23.6456 9.60389 24 9.16667 24C8.72944 24 8.375 23.6456 8.375 23.2083C8.375 22.7711 8.72944 22.4167 9.16667 22.4167C9.60389 22.4167 9.95833 22.7711 9.95833 23.2083ZM23.4167 23.2083C23.4167 23.6456 23.0622 24 22.625 24C22.1878 24 21.8333 23.6456 21.8333 23.2083C21.8333 22.7711 22.1878 22.4167 22.625 22.4167C23.0622 22.4167 23.4167 22.7711 23.4167 23.2083Z" stroke="#333333" stroke-width="1.5" stroke-linecap="round" stroke-linejoin="round"/>
</svg>
